<svg xmlns="http://www.w3.org/2000/svg" width="512" height="512" viewBox="0 0 512 512"><path d="M496.00 256.00 L495.91 303.55 L495.63 323.23 L495.17 338.28 L494.52 350.92 L493.68 362.01 L492.66 371.96 L491.45 381.04 L490.05 389.41 L488.46 397.20 L486.68 404.47 L484.71 411.29 L482.54 417.71 L480.18 423.76 L477.61 429.48 L474.84 434.89 L471.87 440.00 L468.68 444.84 L465.28 449.41 L461.66 453.73 L457.82 457.82 L453.73 461.66 L449.41 465.28 L444.84 468.68 L440.00 471.87 L434.89 474.84 L429.48 477.61 L423.76 480.18 L417.71 482.54 L411.29 484.71 L404.47 486.68 L397.20 488.46 L389.41 490.05 L381.04 491.45 L371.96 492.66 L362.01 493.68 L350.92 494.52 L338.28 495.17 L323.23 495.63 L303.55 495.91 L256.00 496.00 L208.45 495.91 L188.77 495.63 L173.72 495.17 L161.08 494.52 L149.99 493.68 L140.04 492.66 L130.96 491.45 L122.59 490.05 L114.80 488.46 L107.53 486.68 L100.71 484.71 L94.29 482.54 L88.24 480.18 L82.52 477.61 L77.11 474.84 L72.00 471.87 L67.16 468.68 L62.59 465.28 L58.27 461.66 L54.18 457.82 L50.34 453.73 L46.72 449.41 L43.32 444.84 L40.13 440.00 L37.16 434.89 L34.39 429.48 L31.82 423.76 L29.46 417.71 L27.29 411.29 L25.32 404.47 L23.54 397.20 L21.95 389.41 L20.55 381.04 L19.34 371.96 L18.32 362.01 L17.48 350.92 L16.83 338.28 L16.37 323.23 L16.09 303.55 L16.00 256.00 L16.09 208.45 L16.37 188.77 L16.83 173.72 L17.48 161.08 L18.32 149.99 L19.34 140.04 L20.55 130.96 L21.95 122.59 L23.54 114.80 L25.32 107.53 L27.29 100.71 L29.46 94.29 L31.82 88.24 L34.39 82.52 L37.16 77.11 L40.13 72.00 L43.32 67.16 L46.72 62.59 L50.34 58.27 L54.18 54.18 L58.27 50.34 L62.59 46.72 L67.16 43.32 L72.00 40.13 L77.11 37.16 L82.52 34.39 L88.24 31.82 L94.29 29.46 L100.71 27.29 L107.53 25.32 L114.80 23.54 L122.59 21.95 L130.96 20.55 L140.04 19.34 L149.99 18.32 L161.08 17.48 L173.72 16.83 L188.77 16.37 L208.45 16.09 L256.00 16.00 L303.55 16.09 L323.23 16.37 L338.28 16.83 L350.92 17.48 L362.01 18.32 L371.96 19.34 L381.04 20.55 L389.41 21.95 L397.20 23.54 L404.47 25.32 L411.29 27.29 L417.71 29.46 L423.76 31.82 L429.48 34.39 L434.89 37.16 L440.00 40.13 L444.84 43.32 L449.41 46.72 L453.73 50.34 L457.82 54.18 L461.66 58.27 L465.28 62.59 L468.68 67.16 L471.87 72.00 L474.84 77.11 L477.61 82.52 L480.18 88.24 L482.54 94.29 L484.71 100.71 L486.68 107.53 L488.46 114.80 L490.05 122.59 L491.45 130.96 L492.66 140.04 L493.68 149.99 L494.52 161.08 L495.17 173.72 L495.63 188.77 L495.91 208.45 Z" fill="#FFB964"/><g transform="translate(50.286 50.286) scale(4.11429)"><path fill-rule="evenodd" fill="#1B1107" d="M54.16 8.00 C73.92 25.40 76.00 51.70 76.00 66.00 A26.00 26.00 0 0 1 24.00 66.00 C24.00 49.88 28.68 34.68 47.40 25.40 C52.60 17.28 54.16 13.80 54.16 8.00 Z M52.42 46.00 C60.12 54.70 61.00 68.95 61.00 75.00 A11.00 11.00 0 0 1 39.00 75.00 C39.00 68.18 40.98 59.92 48.90 55.28 C51.10 51.22 52.42 48.90 52.42 46.00 Z"/></g></svg>
